# xmcd
#
# Track frame offsets:
#	150
#	10247
#	25127
#	43697
#	58655
#	70590
#	84107
#	101832
#	120430
#	136335
#	150637
#
# Disc length: 2157 seconds
#
# Revision: 0
# Processed by: cddbd v1.5PL3 Copyright (c) Steve Scherf et al.
# Submitted via: dBpowerAMP V4.0
#
DISCID=81086b0b
DTITLE=Jan Cooper and Michael Roycrop - "Good Friends"
DYEAR=1900
DGENRE=Country
TTITLE0=Time After Time
TTITLE1=As This Feelin Will Take Us
TTITLE2=The Shame
TTITLE3=It Took All I've Got
TTITLE4=Don't Stop To Count The Memories
TTITLE5=Between This Time and The Next Time
TTITLE6=Till The Rivers All Run Dry
TTITLE7=Heart Achin Feelin
TTITLE8=What's It Gonna Take
TTITLE9=Good Firends
TTITLE10=Hey Good Lookin
EXTD=
EXTT0=
EXTT1=
EXTT2=
EXTT3=
EXTT4=
EXTT5=
EXTT6=
EXTT7=
EXTT8=
EXTT9=
EXTT10=
PLAYORDER=
